<?xml version="1.0" encoding="UTF-8" standalone="no"?>
<!-- Generator: Adobe Illustrator 19.1.0, SVG Export Plug-In . SVG Version: 6.00 Build 0)  -->

<svg
   xmlns:dc="http://purl.org/dc/elements/1.1/"
   xmlns:cc="http://creativecommons.org/ns#"
   xmlns:rdf="http://www.w3.org/1999/02/22-rdf-syntax-ns#"
   xmlns:svg="http://www.w3.org/2000/svg"
   xmlns="http://www.w3.org/2000/svg"
   xmlns:xlink="http://www.w3.org/1999/xlink"
   xmlns:sodipodi="http://sodipodi.sourceforge.net/DTD/sodipodi-0.dtd"
   xmlns:inkscape="http://www.inkscape.org/namespaces/inkscape"
   version="1.1"
   x="0px"
   y="0px"
   width="65.2px"
   height="65.2px"
   viewBox="0 0 65.2 65.2"
   enable-background="new 0 0 65.2 65.2"
   xml:space="preserve"
   id="svg3336"
   inkscape:version="0.91 r13725"
   sodipodi:docname="icon-redo.svg"><metadata
     id="metadata3357"><rdf:RDF><cc:Work
         rdf:about=""><dc:format>image/svg+xml</dc:format><dc:type
           rdf:resource="http://purl.org/dc/dcmitype/StillImage" /><dc:title></dc:title></cc:Work></rdf:RDF></metadata><defs
     id="defs3355"><marker
       inkscape:stockid="Arrow1Mstart"
       orient="auto"
       refY="0.0"
       refX="0.0"
       id="marker4667"
       style="overflow:visible"
       inkscape:isstock="true"><path
         id="path4669"
         d="M 0.0,0.0 L 5.0,-5.0 L -12.5,0.0 L 5.0,5.0 L 0.0,0.0 z "
         style="fill-rule:evenodd;stroke:#000000;stroke-width:1pt;stroke-opacity:1;fill:#000000;fill-opacity:1"
         transform="scale(0.4) translate(10,0)" /></marker><marker
       inkscape:stockid="Arrow1Mstart"
       orient="auto"
       refY="0.0"
       refX="0.0"
       id="Arrow1Mstart"
       style="overflow:visible"
       inkscape:isstock="true"><path
         id="path4371"
         d="M 0.0,0.0 L 5.0,-5.0 L -12.5,0.0 L 5.0,5.0 L 0.0,0.0 z "
         style="fill-rule:evenodd;stroke:#000000;stroke-width:1pt;stroke-opacity:1;fill:#000000;fill-opacity:1"
         transform="scale(0.4) translate(10,0)" /></marker><marker
       inkscape:stockid="Arrow1Lstart"
       orient="auto"
       refY="0.0"
       refX="0.0"
       id="Arrow1Lstart"
       style="overflow:visible"
       inkscape:isstock="true"><path
         id="path4365"
         d="M 0.0,0.0 L 5.0,-5.0 L -12.5,0.0 L 5.0,5.0 L 0.0,0.0 z "
         style="fill-rule:evenodd;stroke:#000000;stroke-width:1pt;stroke-opacity:1;fill:#000000;fill-opacity:1"
         transform="scale(0.8) translate(12.5,0)" /></marker></defs><sodipodi:namedview
     pagecolor="#ffffff"
     bordercolor="#666666"
     borderopacity="1"
     objecttolerance="10"
     gridtolerance="10"
     guidetolerance="10"
     inkscape:pageopacity="0"
     inkscape:pageshadow="2"
     inkscape:window-width="2560"
     inkscape:window-height="1440"
     id="namedview3353"
     showgrid="false"
     inkscape:zoom="29.171781"
     inkscape:cx="32.599998"
     inkscape:cy="-0.57043606"
     inkscape:window-x="0"
     inkscape:window-y="0"
     inkscape:window-maximized="0"
     inkscape:current-layer="svg3336"
     showguides="false"
     inkscape:snap-grids="true"><inkscape:grid
       type="xygrid"
       id="grid4876" /></sodipodi:namedview><circle
     style="fill:#eae8f0;stroke:#624a9e;stroke-width:3;stroke-miterlimit:10"
     id="circle3341"
     r="31.1"
     cy="32.599998"
     cx="32.599998"
     stroke-miterlimit="10" /><path
     style="fill:#eae8f0;fill-opacity:1"
     d="m 47.2,43 c 0,1.2 -0.9,2.1 -2.1,2.1 l -25.1,0 c -1.2,0 -2.1,-0.9 -2.1,-2.1 l 0,-16.7 c 0,-1.2 0.9,-2.1 2.1,-2.1 l 25.1,0 c 1.2,0 2.1,0.9 2.1,2.1 l 0,16.7 z"
     id="path3343" /><g
     id="header" /><g
     id="landing"
     display="none" /><path
     style="fill:#eae8f0;fill-opacity:1"
     d="M 28.400391 20 C 27.200391 20 26.300781 20.899609 26.300781 22.099609 L 26.300781 23.099609 L 38.900391 23.099609 L 38.900391 22.099609 C 38.900391 20.899609 38.000781 20 36.800781 20 L 28.400391 20 z "
     id="path4347" /><g
     id="gandalf"
     display="none"><defs
       id="defs3346"><rect
         id="SVGID_2_"
         x="279.3"
         y="-374.5"
         width="526"
         height="429" /></defs><clipPath
       id="SVGID_1_"
       display="inline"><use
         xlink:href="#SVGID_2_"
         overflow="visible"
         id="use3350" /></clipPath></g><g
     id="footer_logged_in"
     display="none" /><path
     style="fill:#eae8f0;fill-opacity:1;stroke:#62499e;stroke-width:4;stroke-linecap:square;stroke-miterlimit:4;stroke-dasharray:none;stroke-opacity:1"
     id="path4874"
     sodipodi:type="arc"
     sodipodi:cx="32.379356"
     sodipodi:cy="33.261925"
     sodipodi:rx="14.727918"
     sodipodi:ry="13.955667"
     sodipodi:start="4.2186253"
     sodipodi:end="3.1497766"
     d="M 25.399158,20.973188 A 14.727918,13.955667 0 0 1 43.044775,23.6377 14.727918,13.955667 0 0 1 44.991826,40.468232 14.727918,13.955667 0 0 1 28.374421,46.691708 14.727918,13.955667 0 0 1 17.651932,33.147714"
     sodipodi:open="true" /><path
     style="fill:#62499e;fill-opacity:1;fill-rule:evenodd;stroke:#62499e;stroke-width:0.77825129px;stroke-linecap:butt;stroke-linejoin:miter;stroke-opacity:1"
     d="m 21.958632,24.30969 -0.0043,-7.788885 7.820514,7.756673 z"
     id="path4909"
     inkscape:connector-curvature="0"
     sodipodi:nodetypes="cccc" /></svg>