<?xml version="1.0" encoding="utf-8"?>
<!-- Generator: Adobe Illustrator 19.1.0, SVG Export Plug-In . SVG Version: 6.00 Build 0)  -->
<svg version="1.1" xmlns="http://www.w3.org/2000/svg" xmlns:xlink="http://www.w3.org/1999/xlink" x="0px" y="0px" width="65.2px"
	 height="65.2px" viewBox="0 0 65.2 65.2" enable-background="new 0 0 65.2 65.2" xml:space="preserve">
<g id="header">
</g>
<g id="landing">
</g>
<g id="photo_interface">
</g>
<g id="gandalf">
	<defs>
		<rect id="SVGID_6_" x="277.9" y="-629.5" width="526" height="429"/>
	</defs>
	<clipPath id="SVGID_1_">
		<use xlink:href="#SVGID_6_"  overflow="visible"/>
	</clipPath>
</g>
<g id="Layer_9">
	<defs>
		<rect id="SVGID_8_" x="1425.3" y="-627.1" width="526" height="429"/>
	</defs>
	<clipPath id="SVGID_2_">
		<use xlink:href="#SVGID_8_"  overflow="visible"/>
	</clipPath>
</g>
<g id="conf_overlay">
</g>
<g id="instructions">
	<circle fill="#EAEAEA" stroke="#C7C7C6" stroke-width="3" stroke-miterlimit="10" cx="32.6" cy="32.6" r="31.1"/>
	<path fill="#ACACAC" d="M46.1,21.1h-1.9v-1c0-1.1-0.9-1.9-1.9-1.9H23c-1.1,0-1.9,0.9-1.9,1.9v1h-1.9c-1.1,0-1.9,0.9-1.9,1.9v5.8
		c0,3.6,2.5,6.7,5.9,7.5c1.4,2,3.4,3.6,5.7,4.4v2.6h-1.9c-2.1,0-3.9,1.7-3.9,3.9V49h19.3v-1.9c0-2.1-1.7-3.9-3.9-3.9h-1.9v-2.6
		c2.3-0.8,4.3-2.4,5.7-4.4c3.4-0.8,5.9-3.9,5.9-7.5V23C48,21.9,47.1,21.1,46.1,21.1z M19.1,28.8V23H21v6.7c0,1.3,0.2,2.6,0.7,3.9
		C20.1,32.6,19.1,30.8,19.1,28.8z M38.4,45.1c1.1,0,1.9,0.9,1.9,1.9H24.9c0-1.1,0.9-1.9,1.9-1.9h3.9v-4c0.6,0.1,1.3,0.2,1.9,0.2
		c0.7,0,1.3-0.1,1.9-0.2v4H38.4z M42.2,22v1v6.7c0,5.3-4.3,9.6-9.6,9.6c-5.3,0-9.6-4.3-9.6-9.6V23v-1v-1.9h19.3V22z M46.1,28.8
		c0,2-1,3.8-2.6,4.8c0.4-1.2,0.7-2.5,0.7-3.9V23h1.9V28.8z"/>
	<path opacity="0.3" fill="#FFFFFF" d="M11.7,53.5c-11.5-11.5-11.5-30.2,0-41.7s30.2-11.5,41.7,0L11.7,53.5z"/>
</g>
<g id="instructions_footer">
</g>
<g id="footer_logged_in">
</g>
</svg>
