<?xml version="1.0" encoding="UTF-8" standalone="no"?>
<svg width="143px" height="40px" viewBox="0 0 143 40" version="1.1" xmlns="http://www.w3.org/2000/svg" xmlns:xlink="http://www.w3.org/1999/xlink" xmlns:sketch="http://www.bohemiancoding.com/sketch/ns">
    <!-- Generator: Sketch 3.3.3 (12072) - http://www.bohemiancoding.com/sketch -->
    <title>logo</title>
    <desc>Created with Sketch.</desc>
    <defs></defs>
    <g id="Page-1" stroke="none" stroke-width="1" fill="none" fill-rule="evenodd" sketch:type="MSPage">
        <g id="main" sketch:type="MSArtboardGroup" transform="translate(-25.000000, -23.000000)" fill="#FFFFFF">
            <g id="nav" sketch:type="MSLayerGroup" transform="translate(25.000000, 23.000000)">
                <path d="M32.274167,0 L3.58601855,0 C1.60573942,0 0,1.612 0,3.6 L0,36.4 C0,38.388 1.60573942,40 3.58601855,40 L32.274167,40 C34.2544461,40 35.8601855,38.388 35.8601855,36.4 L35.8601855,3.6 C35.8601855,1.612 34.2544461,0 32.274167,0 Z M33.867953,36.4 C33.867953,37.2825 33.1532396,38 32.274167,38 L3.58601855,38 C2.70744401,38 1.99223253,37.2825 1.99223253,36.4 L1.99223253,3.6 C1.99223253,2.7175 2.70744401,2 3.58601855,2 L32.274167,2 C33.1532396,2 33.867953,2.7175 33.867953,3.6 L33.867953,36.4 Z M8.96504638,34 L13.4475696,30 L8.96504638,26 L8.96504638,34 Z M25.1604027,17.7875 C24.357533,16.972 22.8832809,16 20.4203834,16 C17.7194142,16 14.9387556,16.7055 12.9495114,17.3555 L12.9495114,6 L8.96504638,6 L8.96504638,23.346 L11.7795729,22.066 C11.8248962,22.0455 16.3691786,20 20.4203834,20 C22.4429975,20 22.8912498,21.1215 22.9106741,22.055 L22.9106741,34 L26.8951392,34 L26.8951392,22 C26.8976294,21.744 26.8737227,19.5275 25.1604027,17.7875 Z M19.9223253,12.5 L23.9067904,12.5 C25.7087647,10.45 26.6261878,8.272 26.8951392,6 L22.9106741,6 C22.4713868,8.267 21.4882201,10.4375 19.9223253,12.5 Z M130.435895,21.9021404 L130.435895,13.0509941 L134.436196,13.0509941 L134.436196,21.8825993 C134.436196,23.9193901 135.096308,24.838326 136.69693,24.838326 C138.296549,24.838326 138.936597,23.9193901 138.936597,21.8825993 L138.936597,13.0509941 L142.857143,13.0509941 L142.857143,21.9021404 C142.857143,25.8188917 140.977127,28.0556037 136.656802,28.0556037 C132.335975,28.0556037 130.435895,25.8188917 130.435895,21.9021404 Z M113.581962,13.0509941 L117.581762,13.0509941 L117.581762,18.4062758 L121.662821,13.0509941 L126.30317,13.0509941 L121.322231,18.8852849 L126.742576,27.8361414 L122.222111,27.8361414 L118.722412,21.9216816 L117.581762,23.2404598 L117.581762,27.8361414 L113.581962,27.8361414 L113.581962,13.0509941 Z M94.5876806,20.4430667 C94.5876806,15.0296624 98.2875201,12.770904 101.867978,12.770904 C105.428371,12.770904 109.128712,15.0296624 109.128712,20.4430667 C109.128712,25.857473 105.428371,28.1152293 101.867978,28.1152293 C98.2875201,28.1152293 94.5876806,25.857473 94.5876806,20.4430667 Z M105.127909,20.4430667 C105.127909,17.7258424 103.948134,16.0678496 101.867978,16.0678496 C99.7677568,16.0678496 98.5879815,17.7258424 98.5879815,20.4430667 C98.5879815,23.1612931 99.7677568,24.9189959 101.867978,24.9189959 C103.948134,24.9189959 105.127909,23.1612931 105.127909,20.4430667 Z M78.5132424,13.0509941 L84.29374,13.0509941 C88.0939005,13.0509941 90.4143258,14.3101467 90.4143258,17.8661379 C90.4143258,20.1835199 89.4336878,21.5228414 87.4939807,22.1812284 L90.6340289,27.8361414 L86.3939607,27.8361414 L83.5333066,22.7018251 L82.4332865,22.7018251 L82.4332865,27.8361414 L78.5132424,27.8361414 L78.5132424,13.0509941 Z M84.1532905,19.6639253 C85.7935393,19.6639253 86.5133427,19.2044573 86.5133427,17.965848 C86.5133427,16.7277397 85.7935393,16.2873119 84.1532905,16.2873119 L82.4332865,16.2873119 L82.4332865,19.6639253 L84.1532905,19.6639253 Z M63.2182986,13.0509941 L73.7790931,13.0509941 L73.7790931,16.3679818 L67.2185995,16.3679818 L67.2185995,18.7655327 L71.899077,18.7655327 L71.899077,21.8825993 L67.2185995,21.8825993 L67.2185995,24.6193647 L74.119683,24.6193647 L74.119683,27.8361414 L63.2182986,27.8361414 L63.2182986,13.0509941 Z M45.1444623,13.0509941 L49.1447632,13.0509941 L49.1447632,18.5450682 L54.065008,18.5450682 L54.065008,13.0509941 L58.0658106,13.0509941 L58.0658106,27.8361414 L54.065008,27.8361414 L54.065008,21.862056 L49.1447632,21.862056 L49.1447632,27.8361414 L45.1444623,27.8361414 L45.1444623,13.0509941 Z" id="logo" sketch:type="MSShapeGroup"></path>
            </g>
        </g>
    </g>
</svg>